<svg width="14" height="15" viewBox="0 0 14 15" fill="none" xmlns="http://www.w3.org/2000/svg">
<path d="M11.375 6.08594H7.875V2.58594H2.625V13.0859H11.375V6.08594ZM11.0128 5.21094L8.75 2.94819V5.21094H11.0128ZM2.1875 1.71094H8.75L12.25 5.21094V13.5234C12.25 13.6395 12.2039 13.7507 12.1219 13.8328C12.0398 13.9148 11.9285 13.9609 11.8125 13.9609H2.1875C2.07147 13.9609 1.96019 13.9148 1.87814 13.8328C1.79609 13.7507 1.75 13.6395 1.75 13.5234V2.14844C1.75 2.03241 1.79609 1.92113 1.87814 1.83908C1.96019 1.75703 2.07147 1.71094 2.1875 1.71094ZM4.375 7.83594H9.625V8.71094H4.375V7.83594ZM4.375 5.21094H6.5625V6.08594H4.375V5.21094ZM4.375 10.4609H9.625V11.3359H4.375V10.4609Z" fill="black"/>
</svg>
