<svg width="29" height="28" viewBox="0 0 29 28" fill="none" xmlns="http://www.w3.org/2000/svg">
<path d="M9.9569 15.4633L13.2371 12.183L6.06236 5.01985C5.50599 4.46348 4.54395 4.61416 4.19622 5.3328C3.37327 7.05985 3.67463 9.18098 5.10031 10.6183L9.9569 15.4633ZM17.8155 13.3653C19.5889 14.1883 22.081 13.6087 23.9239 11.7658C26.1378 9.55189 26.5667 6.37598 24.8628 4.67212C23.1705 2.97985 19.9946 3.39712 17.7692 5.61098C15.9262 7.45394 15.3467 9.94598 16.1696 11.7194L5.66827 22.2208C5.45154 22.4375 5.32979 22.7314 5.32979 23.0379C5.32979 23.3444 5.45154 23.6384 5.66827 23.8551C5.88499 24.0718 6.17893 24.1936 6.48543 24.1936C6.79192 24.1936 7.08586 24.0718 7.30259 23.8551L14.4774 16.7035L21.6405 23.8667C21.7479 23.974 21.8752 24.0591 22.0155 24.1172C22.1557 24.1753 22.3059 24.2051 22.4577 24.2051C22.6095 24.2051 22.7597 24.1753 22.8999 24.1172C23.0401 24.0591 23.1675 23.974 23.2749 23.8667C23.3822 23.7594 23.4673 23.632 23.5254 23.4918C23.5834 23.3515 23.6133 23.2013 23.6133 23.0495C23.6133 22.8977 23.5834 22.7475 23.5254 22.6073C23.4673 22.4671 23.3822 22.3397 23.2749 22.2323L16.1117 15.0692L17.8155 13.3653Z" fill="black"/>
</svg>
