<svg width="29" height="22" viewBox="0 0 29 22" fill="none" xmlns="http://www.w3.org/2000/svg">
<path d="M4.71103 20.4709C4.71103 20.2403 4.80262 20.0192 4.96565 19.8562C5.12868 19.6932 5.34979 19.6016 5.58035 19.6016H22.9667C23.1973 19.6016 23.4184 19.6932 23.5814 19.8562C23.7444 20.0192 23.836 20.2403 23.836 20.4709C23.836 20.7014 23.7444 20.9226 23.5814 21.0856C23.4184 21.2486 23.1973 21.3402 22.9667 21.3402H5.58035C5.34979 21.3402 5.12868 21.2486 4.96565 21.0856C4.80262 20.9226 4.71103 20.7014 4.71103 20.4709ZM24.6897 2.2152L24.7314 2.21694C25.0563 2.23905 25.3739 2.32346 25.6668 2.46556C25.8778 2.56376 26.059 2.71614 26.1919 2.90718C26.3084 3.08104 26.444 3.38878 26.444 3.95384V14.37L26.4422 14.4117C26.42 14.7366 26.3356 15.0541 26.1936 15.3471C26.0954 15.5581 25.943 15.7392 25.752 15.8722C25.5781 15.9887 25.2704 16.1243 24.7053 16.1243H3.85736L3.81563 16.1226C3.49081 16.1003 3.17327 16.0159 2.88025 15.8739C2.66931 15.7757 2.48814 15.6233 2.35518 15.4323C2.23869 15.2584 2.10308 14.9507 2.10308 14.3857V3.96948L2.10482 3.92776C2.12693 3.6029 2.21134 3.28533 2.35344 2.99237C2.45171 2.78143 2.60407 2.60026 2.79505 2.4673C2.96892 2.35081 3.27666 2.2152 3.84171 2.2152H24.6897ZM24.7053 0.476562H3.84171C0.364441 0.476562 0.364441 3.95384 0.364441 3.95384V14.3857C0.364441 17.8629 3.84171 17.8629 3.84171 17.8629H24.7053C28.1826 17.8629 28.1826 14.3857 28.1826 14.3857V3.95384C28.1826 0.476562 24.7053 0.476562 24.7053 0.476562Z" fill="#444444"/>
</svg>
