<svg width="15" height="15" viewBox="0 0 15 15" fill="none" xmlns="http://www.w3.org/2000/svg">
<path d="M10.328 13.8641V14.3425H10.8198V13.8641H10.328ZM0.491808 13.8641H0V14.3425H0.491808V13.8641ZM14.2624 13.8737V14.3521H14.7542V13.8737H14.2624ZM7.86893 3.34691C7.8688 3.66091 7.8051 3.97181 7.68145 4.26186C7.5578 4.55191 7.37663 4.81543 7.14829 5.03737C6.91995 5.25931 6.6489 5.43533 6.35062 5.55538C6.05235 5.67542 5.73269 5.73714 5.40989 5.73702V6.69383C7.31122 6.69383 8.85255 5.19547 8.85255 3.34691H7.86893ZM5.40989 5.73702C5.08709 5.73714 4.76743 5.67542 4.46916 5.55538C4.17088 5.43533 3.89984 5.25931 3.67149 5.03737C3.44315 4.81543 3.26198 4.55191 3.13833 4.26186C3.01469 3.97181 2.95098 3.66091 2.95085 3.34691H1.96723C1.96736 3.78656 2.05651 4.22188 2.22959 4.62801C2.40267 5.03415 2.65629 5.40314 2.97597 5.71393C3.29565 6.02472 3.67513 6.27122 4.09274 6.43935C4.51036 6.60748 4.95792 6.69395 5.40989 6.69383V5.73702ZM2.95085 3.34691C2.95098 3.03291 3.01469 2.72201 3.13833 2.43197C3.26198 2.14192 3.44315 1.8784 3.67149 1.65646C3.89984 1.43451 4.17088 1.2585 4.46916 1.13845C4.76743 1.0184 5.08709 0.956682 5.40989 0.956808V1.36778e-07C4.95792 -0.000125531 4.51036 0.0863452 4.09274 0.254475C3.67513 0.422605 3.29565 0.669102 2.97597 0.979892C2.65629 1.29068 2.40267 1.65968 2.22959 2.06581C2.05651 2.47195 1.96736 2.90726 1.96723 3.34691H2.95085ZM5.40989 0.956808C6.06173 0.956807 6.6869 1.20856 7.148 1.65674C7.6091 2.10491 7.86841 2.71284 7.86893 3.34691H8.85255C8.85242 2.90726 8.76327 2.47195 8.59019 2.06581C8.41711 1.65968 8.16349 1.29068 7.84381 0.979892C7.52413 0.669102 7.14465 0.422605 6.72704 0.254475C6.30943 0.0863452 5.86186 -0.000125531 5.40989 1.36778e-07V0.956808ZM10.328 13.3857H0.491808V14.3425H10.328V13.3857ZM0.983617 13.8641V11.9553H0V13.8641H0.983617ZM3.44266 9.56233H7.37712V8.60553H3.44266V9.56233ZM9.83617 11.9544V13.8641H10.8198V11.9544H9.83617ZM7.37712 9.56233C8.0293 9.56233 8.65477 9.81435 9.11593 10.2629C9.57709 10.7115 9.83617 11.32 9.83617 11.9544H10.8198C10.8198 11.0662 10.4571 10.2144 9.81145 9.58638C9.16583 8.95835 8.29017 8.60553 7.37712 8.60553V9.56233ZM0.983617 11.9544C0.983617 11.32 1.24269 10.7115 1.70385 10.2629C2.16501 9.81435 2.79048 9.56233 3.44266 9.56233V8.60553C2.52961 8.60553 1.65395 8.95835 1.00833 9.58638C0.362708 10.2144 0 11.0662 0 11.9544H0.983617ZM13.7706 12.4385V13.8737H14.7542V12.4385H13.7706ZM14.2624 13.3953H11.8034V14.3521H14.2624V13.3953ZM11.8034 10.5249C12.3251 10.5249 12.8255 10.7265 13.1944 11.0854C13.5634 11.4442 13.7706 11.931 13.7706 12.4385H14.7542C14.7542 11.6772 14.4434 10.9471 13.89 10.4088C13.3366 9.87049 12.586 9.56808 11.8034 9.56808V10.5249ZM11.3116 7.65446C10.9203 7.65446 10.545 7.50325 10.2683 7.2341C9.99161 6.96494 9.83617 6.59989 9.83617 6.21925H8.85255C8.85255 6.85365 9.11163 7.46207 9.57279 7.91066C10.0339 8.35925 10.6594 8.61127 11.3116 8.61127V7.65446ZM12.787 6.21925C12.787 6.59989 12.6316 6.96494 12.3549 7.2341C12.0782 7.50325 11.7029 7.65446 11.3116 7.65446V8.61127C11.9638 8.61127 12.5892 8.35925 13.0504 7.91066C13.5116 7.46207 13.7706 6.85365 13.7706 6.21925H12.787ZM11.3116 4.78404C11.7029 4.78404 12.0782 4.93525 12.3549 5.2044C12.6316 5.47356 12.787 5.83861 12.787 6.21925H13.7706C13.7706 5.58485 13.5116 4.97643 13.0504 4.52784C12.5892 4.07925 11.9638 3.82723 11.3116 3.82723V4.78404ZM11.3116 3.82723C10.6594 3.82723 10.0339 4.07925 9.57279 4.52784C9.11163 4.97643 8.85255 5.58485 8.85255 6.21925H9.83617C9.83617 5.83861 9.99161 5.47356 10.2683 5.2044C10.545 4.93525 10.9203 4.78404 11.3116 4.78404V3.82723Z" fill="black"/>
</svg>
