<svg width="14" height="14" viewBox="0 0 14 14" fill="none" xmlns="http://www.w3.org/2000/svg">
<path d="M11.705 2.07197H10.328V1.45005C10.328 1.28511 10.2554 1.12692 10.1263 1.01028C9.99718 0.893649 9.82205 0.828125 9.63944 0.828125C9.45683 0.828125 9.2817 0.893649 9.15258 1.01028C9.02345 1.12692 8.95091 1.28511 8.95091 1.45005V2.07197H4.81972V1.45005C4.81972 1.28511 4.74718 1.12692 4.61805 1.01028C4.48893 0.893649 4.3138 0.828125 4.13119 0.828125C3.94858 0.828125 3.77345 0.893649 3.64432 1.01028C3.5152 1.12692 3.44266 1.28511 3.44266 1.45005V2.07197H2.06559C1.51776 2.07197 0.992373 2.26855 0.604999 2.61845C0.217625 2.96835 0 3.44292 0 3.93775V11.4008C0 11.8957 0.217625 12.3702 0.604999 12.7201C0.992373 13.0701 1.51776 13.2666 2.06559 13.2666H11.705C12.2529 13.2666 12.7783 13.0701 13.1656 12.7201C13.553 12.3702 13.7706 11.8957 13.7706 11.4008V3.93775C13.7706 3.44292 13.553 2.96835 13.1656 2.61845C12.7783 2.26855 12.2529 2.07197 11.705 2.07197ZM12.3936 11.4008C12.3936 11.5658 12.321 11.724 12.1919 11.8406C12.0628 11.9572 11.8876 12.0228 11.705 12.0228H2.06559C1.88298 12.0228 1.70785 11.9572 1.57873 11.8406C1.4496 11.724 1.37706 11.5658 1.37706 11.4008V7.04737H12.3936V11.4008ZM12.3936 5.80352H1.37706V3.93775C1.37706 3.7728 1.4496 3.61462 1.57873 3.49798C1.70785 3.38135 1.88298 3.31582 2.06559 3.31582H3.44266V3.93775C3.44266 4.10269 3.5152 4.26088 3.64432 4.37752C3.77345 4.49415 3.94858 4.55967 4.13119 4.55967C4.3138 4.55967 4.48893 4.49415 4.61805 4.37752C4.74718 4.26088 4.81972 4.10269 4.81972 3.93775V3.31582H8.95091V3.93775C8.95091 4.10269 9.02345 4.26088 9.15258 4.37752C9.2817 4.49415 9.45683 4.55967 9.63944 4.55967C9.82205 4.55967 9.99718 4.49415 10.1263 4.37752C10.2554 4.26088 10.328 4.10269 10.328 3.93775V3.31582H11.705C11.8876 3.31582 12.0628 3.38135 12.1919 3.49798C12.321 3.61462 12.3936 3.7728 12.3936 3.93775V5.80352Z" fill="black"/>
</svg>
