<svg width="15" height="13" viewBox="0 0 15 13" fill="none" xmlns="http://www.w3.org/2000/svg">
<path d="M12.5196 1.3H11.0803V0.65C11.0803 0.477609 11.0045 0.312279 10.8696 0.190381C10.7346 0.0684819 10.5516 0 10.3607 0C10.1699 0 9.98683 0.0684819 9.85188 0.190381C9.71692 0.312279 9.64111 0.477609 9.64111 0.65V1.3H5.32343V0.65C5.32343 0.477609 5.24761 0.312279 5.11266 0.190381C4.9777 0.0684819 4.79467 0 4.60381 0C4.41296 0 4.22992 0.0684819 4.09497 0.190381C3.96002 0.312279 3.8842 0.477609 3.8842 0.65V1.3H2.44497C1.87241 1.3 1.3233 1.50545 0.918443 1.87114C0.513581 2.23684 0.286133 2.73283 0.286133 3.25V11.05C0.286133 11.5672 0.513581 12.0632 0.918443 12.4289C1.3233 12.7946 1.87241 13 2.44497 13H12.5196C13.0921 13 13.6412 12.7946 14.0461 12.4289C14.451 12.0632 14.6784 11.5672 14.6784 11.05V3.25C14.6784 2.73283 14.451 2.23684 14.0461 1.87114C13.6412 1.50545 13.0921 1.3 12.5196 1.3ZM13.2392 11.05C13.2392 11.2224 13.1634 11.3877 13.0284 11.5096C12.8935 11.6315 12.7104 11.7 12.5196 11.7H2.44497C2.25412 11.7 2.07108 11.6315 1.93613 11.5096C1.80118 11.3877 1.72536 11.2224 1.72536 11.05V6.5H13.2392V11.05ZM13.2392 5.2H1.72536V3.25C1.72536 3.07761 1.80118 2.91228 1.93613 2.79038C2.07108 2.66848 2.25412 2.6 2.44497 2.6H3.8842V3.25C3.8842 3.42239 3.96002 3.58772 4.09497 3.70962C4.22992 3.83152 4.41296 3.9 4.60381 3.9C4.79467 3.9 4.9777 3.83152 5.11266 3.70962C5.24761 3.58772 5.32343 3.42239 5.32343 3.25V2.6H9.64111V3.25C9.64111 3.42239 9.71692 3.58772 9.85188 3.70962C9.98683 3.83152 10.1699 3.9 10.3607 3.9C10.5516 3.9 10.7346 3.83152 10.8696 3.70962C11.0045 3.58772 11.0803 3.42239 11.0803 3.25V2.6H12.5196C12.7104 2.6 12.8935 2.66848 13.0284 2.79038C13.1634 2.91228 13.2392 3.07761 13.2392 3.25V5.2Z" fill="black"/>
</svg>
