<svg width="17" height="15" viewBox="0 0 17 15" fill="none" xmlns="http://www.w3.org/2000/svg">
<path d="M11.5044 14.49V14.99H12.0184V14.49H11.5044ZM1.22421 14.49H0.710205V14.99H1.22421V14.49ZM15.6165 14.5V15H16.1305V14.5H15.6165ZM8.93436 3.498C8.93422 3.82617 8.86764 4.15111 8.73841 4.45425C8.60918 4.75739 8.41984 5.03281 8.18118 5.26477C7.94253 5.49673 7.65925 5.68069 7.34751 5.80616C7.03577 5.93162 6.70168 5.99613 6.36431 5.996V6.996C8.35147 6.996 9.96238 5.43 9.96238 3.498H8.93436ZM6.36431 5.996C6.02694 5.99613 5.69285 5.93162 5.38111 5.80616C5.06937 5.68069 4.78609 5.49673 4.54744 5.26477C4.30879 5.03281 4.11944 4.75739 3.99021 4.45425C3.86098 4.15111 3.7944 3.82617 3.79426 3.498H2.76624C2.76638 3.9575 2.85955 4.41247 3.04045 4.83693C3.22134 5.2614 3.48641 5.64705 3.82052 5.97187C4.15463 6.29669 4.55124 6.55432 4.98771 6.73004C5.42417 6.90576 5.89194 6.99613 6.36431 6.996V5.996ZM3.79426 3.498C3.7944 3.16983 3.86098 2.84489 3.99021 2.54175C4.11944 2.23861 4.30879 1.96319 4.54744 1.73123C4.78609 1.49927 5.06937 1.31531 5.38111 1.18984C5.69285 1.06438 6.02694 0.999869 6.36431 1V1.42952e-07C5.89194 -0.000131198 5.42417 0.0902431 4.98771 0.265963C4.55124 0.441683 4.15463 0.699307 3.82052 1.02413C3.48641 1.34895 3.22134 1.7346 3.04045 2.15907C2.85955 2.58353 2.76638 3.0385 2.76624 3.498H3.79426ZM6.36431 1C7.04557 1 7.69897 1.26312 8.18088 1.73153C8.6628 2.19993 8.93382 2.83531 8.93436 3.498H9.96238C9.96224 3.0385 9.86907 2.58353 9.68818 2.15907C9.50728 1.7346 9.24222 1.34895 8.9081 1.02413C8.57399 0.699307 8.17738 0.441683 7.74092 0.265963C7.30445 0.0902431 6.83668 -0.000131198 6.36431 1.42952e-07V1ZM11.5044 13.99H1.22421V14.99H11.5044V13.99ZM1.73822 14.49V12.495H0.710205V14.49H1.73822ZM4.30827 9.994H8.42035V8.994H4.30827V9.994ZM10.9904 12.494V14.49H12.0184V12.494H10.9904ZM8.42035 9.994C9.10197 9.994 9.75567 10.2574 10.2376 10.7262C10.7196 11.1951 10.9904 11.831 10.9904 12.494H12.0184C12.0184 11.5657 11.6393 10.6755 10.9646 10.0191C10.2898 9.36275 9.37462 8.994 8.42035 8.994V9.994ZM1.73822 12.494C1.73822 11.831 2.009 11.1951 2.49097 10.7262C2.97295 10.2574 3.62665 9.994 4.30827 9.994V8.994C3.35401 8.994 2.43882 9.36275 1.76405 10.0191C1.08929 10.6755 0.710205 11.5657 0.710205 12.494H1.73822ZM15.1025 13V14.5H16.1305V13H15.1025ZM15.6165 14H13.0464V15H15.6165V14ZM13.0464 11C13.5917 11 14.1147 11.2107 14.5003 11.5858C14.8859 11.9609 15.1025 12.4696 15.1025 13H16.1305C16.1305 12.2044 15.8056 11.4413 15.2272 10.8787C14.6488 10.3161 13.8644 10 13.0464 10V11ZM12.5324 8C12.1235 8 11.7312 7.84196 11.442 7.56066C11.1529 7.27936 10.9904 6.89782 10.9904 6.5H9.96238C9.96238 7.16304 10.2332 7.79893 10.7151 8.26777C11.1971 8.73661 11.8508 9 12.5324 9V8ZM14.0745 6.5C14.0745 6.89782 13.912 7.27936 13.6228 7.56066C13.3336 7.84196 12.9414 8 12.5324 8V9C13.214 9 13.8677 8.73661 14.3497 8.26777C14.8317 7.79893 15.1025 7.16304 15.1025 6.5H14.0745ZM12.5324 5C12.9414 5 13.3336 5.15804 13.6228 5.43934C13.912 5.72064 14.0745 6.10218 14.0745 6.5H15.1025C15.1025 5.83696 14.8317 5.20107 14.3497 4.73223C13.8677 4.26339 13.214 4 12.5324 4V5ZM12.5324 4C11.8508 4 11.1971 4.26339 10.7151 4.73223C10.2332 5.20107 9.96238 5.83696 9.96238 6.5H10.9904C10.9904 6.10218 11.1529 5.72064 11.442 5.43934C11.7312 5.15804 12.1235 5 12.5324 5V4Z" fill="black"/>
</svg>
