<svg width="18" height="10" viewBox="0 0 18 10" fill="none" xmlns="http://www.w3.org/2000/svg">
<path d="M6.14102 0C5.91086 0.000861794 5.68676 0.0676071 5.5001 0.190888C5.31344 0.31417 5.17357 0.487813 5.10008 0.6875L4.26286 3H0.286997V7.1095C0.28599 7.33146 0.366074 7.54735 0.514514 7.72284C0.662953 7.89834 0.871223 8.02335 1.1062 8.078L2.52287 8.4065C2.62476 8.85587 2.89236 9.25949 3.28077 9.54963C3.66919 9.83978 4.15478 9.99879 4.65608 10C5.66752 10 6.51184 9.3595 6.75542 8.5H11.841C12.0846 9.3595 12.9289 10 13.9404 10C14.9518 10 15.7961 9.3595 16.0397 8.5H16.671C17.2685 8.5 17.7633 8.047 17.7633 7.5V5.625C17.7623 5.19039 17.6069 4.76787 17.3206 4.42118C17.0343 4.07448 16.6327 3.82242 16.1762 3.703L13.7012 3.0625L11.568 0.7185C11.3638 0.49378 11.1082 0.312924 10.8192 0.188755C10.5302 0.064586 10.2149 0.000144621 9.8957 0H6.14102ZM6.14102 1H7.93289V3H5.40701L6.14102 1ZM9.02516 1H9.8957C10.2196 1 10.5248 1.131 10.7318 1.3595L12.2337 3H9.02516V1ZM1.37927 4H13.309L15.8857 4.672C16.113 4.72941 16.3133 4.85396 16.4553 5.02631C16.5973 5.19865 16.6732 5.40912 16.671 5.625V7.5H16.0397C15.7961 6.6405 14.9518 6 13.9404 6C12.9289 6 12.0846 6.6405 11.841 7.5H6.75542C6.51184 6.6405 5.66752 6 4.65608 6C3.68778 6 2.87458 6.586 2.59114 7.3905L1.37927 7.11V4ZM4.65608 7C5.26611 7 5.74835 7.4415 5.74835 8C5.74835 8.5585 5.26611 9 4.65608 9C4.04604 9 3.56381 8.5585 3.56381 8C3.56381 7.4415 4.04604 7 4.65608 7ZM13.9404 7C14.5504 7 15.0326 7.4415 15.0326 8C15.0326 8.5585 14.5504 9 13.9404 9C13.3303 9 12.8481 8.5585 12.8481 8C12.8481 7.4415 13.3303 7 13.9404 7Z" fill="black"/>
</svg>
