<svg width="13" height="15" viewBox="0 0 13 15" fill="none" xmlns="http://www.w3.org/2000/svg">
<path d="M6.31985 7.5C5.47173 7.5 4.77782 6.825 4.77782 6C4.77782 5.175 5.47173 4.5 6.31985 4.5C7.16797 4.5 7.86188 5.175 7.86188 6C7.86188 6.825 7.16797 7.5 6.31985 7.5ZM10.9459 6.15C10.9459 3.4275 8.90275 1.5 6.31985 1.5C3.73695 1.5 1.69376 3.4275 1.69376 6.15C1.69376 7.905 3.19724 10.23 6.31985 13.005C9.44246 10.23 10.9459 7.905 10.9459 6.15ZM6.31985 0C9.55811 0 12.488 2.415 12.488 6.15C12.488 8.64 10.4294 11.5875 6.31985 15C2.21034 11.5875 0.151733 8.64 0.151733 6.15C0.151733 2.415 3.08159 0 6.31985 0Z" fill="black"/>
</svg>
